<svg version="1.1" id="Layer_1" xmlns="http://www.w3.org/2000/svg" xmlns:xlink="http://www.w3.org/1999/xlink" x="0px" y="0px"
	 width="100%" viewBox="0 0 800 800" enable-background="new 0 0 800 800" xml:space="preserve">
<path fill="#FEFEFE" opacity="1.000000" stroke="none" 
	d="
M1.000000,316.000000 
	C1.000000,210.666672 1.000000,105.833336 1.000000,1.000000 
	C267.666656,1.000000 534.333313,1.000000 801.000000,1.000000 
	C801.000000,267.666656 801.000000,534.333313 801.000000,801.000000 
	C534.333313,801.000000 267.666656,801.000000 1.000000,801.000000 
	C1.000000,639.500000 1.000000,478.000000 1.000000,316.000000 
M101.810684,580.808472 
	C101.810684,580.808472 101.709641,580.765198 101.143990,580.850098 
	C100.929825,581.157532 100.715660,581.465027 100.167053,581.852112 
	C100.167053,581.852112 100.023979,582.164734 99.414444,582.279602 
	C98.617195,583.194153 97.819954,584.108704 96.395218,585.241028 
	C93.930534,587.826416 91.465851,590.411743 88.362793,593.189270 
	C85.286873,596.193726 82.161819,599.149719 79.144478,602.211914 
	C71.043907,610.432800 62.989391,618.699036 54.992687,626.990356 
	C54.992687,626.990356 54.945709,626.916565 54.361664,626.991028 
	C53.812321,627.723633 53.262974,628.456238 52.077160,629.503845 
	C51.781834,629.866882 51.486504,630.229919 50.611900,630.670471 
	C50.039516,631.421509 49.467136,632.172485 48.986568,632.983398 
	C48.986568,632.983398 48.925140,632.892578 48.284420,633.086731 
	C45.828056,635.708313 43.371693,638.329895 40.386784,641.178223 
	C40.278801,641.336670 40.170822,641.495117 39.472893,641.777954 
	C37.279766,644.160950 35.086639,646.543945 32.982723,648.981689 
	C32.982723,648.981689 32.927887,648.892517 32.291073,649.082275 
	C30.462271,650.985413 28.633469,652.888611 26.997021,654.997253 
	C26.997021,654.997253 26.791506,654.804993 26.139803,654.962708 
	C21.965418,659.370850 17.791031,663.778992 13.616646,668.187134 
	C14.003434,668.625732 14.390224,669.064392 14.777012,669.502991 
	C20.855347,664.671082 26.933680,659.839172 32.999695,655.000000 
	C32.999695,655.000000 33.006847,655.012451 33.664356,654.861450 
	C35.131618,653.593140 36.598885,652.324890 38.614170,650.823059 
	C38.732887,650.663818 38.851601,650.504639 39.563229,650.397827 
	C40.749413,649.286194 41.935593,648.174561 43.638664,646.902100 
	C43.746265,646.757202 43.853870,646.612366 44.575577,646.383545 
	C46.142872,645.011780 47.710167,643.639954 49.152393,642.090149 
	C49.152393,642.090149 49.222458,642.296082 49.752316,642.194397 
	C49.951904,641.910217 50.151493,641.626099 50.097885,641.225647 
	C50.097885,641.225647 50.319611,641.394348 50.952961,641.286865 
	C51.717583,640.598083 52.482208,639.909241 53.145180,639.154297 
	C53.145180,639.154297 53.170193,639.273010 53.852570,639.162170 
	C55.553886,637.759644 57.255199,636.357178 59.582188,634.829895 
	C60.623291,633.830322 61.664391,632.830750 62.848946,631.870728 
	C62.848946,631.870728 62.853306,631.721985 63.454048,631.736389 
	C64.005234,631.193481 64.556419,630.650513 65.754692,629.908264 
	C67.611259,628.325806 69.467827,626.743408 71.764519,625.044189 
	C71.764519,625.044189 72.051125,624.690430 72.470245,624.655151 
	C72.753281,624.527466 72.912804,624.309387 72.999466,624.015320 
	C72.999466,624.015320 73.006737,623.963135 73.550537,623.934509 
	C73.882835,623.531860 74.215126,623.129150 74.901947,622.587036 
	C74.901947,622.587036 75.077362,622.248779 75.652916,622.154114 
	C75.855957,621.843872 76.058998,621.533630 76.138199,621.174988 
	C76.138199,621.174988 76.203369,621.290894 76.774681,621.281189 
	C77.263626,620.778748 77.752571,620.276367 78.716919,619.554871 
	C78.815033,619.410583 78.913147,619.266296 79.601898,619.100098 
	C79.970543,618.679504 80.339180,618.258972 80.856224,617.846985 
	C80.856224,617.846985 80.840042,617.699219 81.467102,617.571655 
	C82.359764,616.727722 83.252419,615.883728 84.580856,614.867249 
	C84.580856,614.867249 84.861336,614.491699 85.488342,614.564026 
	C86.754211,613.464539 88.020073,612.365112 89.932693,611.101318 
	C91.367783,609.819763 92.802872,608.538208 94.061501,606.994019 
	C94.061501,606.994019 94.217674,607.268677 94.861725,607.234558 
	C95.632996,606.546692 96.404274,605.858765 97.799904,604.983887 
	C99.001434,603.899597 100.202965,602.815308 101.991234,601.459229 
	C102.289909,601.152649 102.588585,600.846008 103.466461,600.595276 
	C103.985863,600.071228 104.505264,599.547119 105.592682,598.788574 
	C105.721725,598.629517 105.850777,598.470459 106.349831,598.423218 
	C106.447762,598.336121 106.624580,598.252197 106.628227,598.161377 
	C106.637619,597.927490 106.570328,597.690613 106.495819,597.490417 
	C106.495819,597.490417 106.559776,597.465088 106.544121,597.547852 
	C106.544121,597.547852 106.628288,597.545349 107.126945,597.518921 
	C107.495872,597.190674 107.864799,596.862366 108.895233,596.335327 
	C110.082077,595.289795 111.268929,594.244202 113.095490,593.020752 
	C113.658966,592.667542 114.258438,592.360657 114.780777,591.954529 
	C149.867325,564.677368 184.942932,537.386230 220.029510,510.109161 
	C281.397980,462.399994 342.779175,414.707184 404.143127,366.992218 
	C456.569305,326.227020 508.963989,285.421204 561.399780,244.668381 
	C615.013062,203.000427 668.660278,161.376175 722.286072,119.724297 
	C723.553772,118.739662 724.743469,117.654533 725.969543,116.616264 
	C725.869934,116.211235 725.770386,115.806206 725.670776,115.401176 
	C723.422791,115.401176 721.174866,115.400780 718.926880,115.401237 
	C686.940857,115.407700 654.954773,115.417046 622.968750,115.420052 
	C589.316345,115.423218 555.663879,115.392311 522.011719,115.491074 
	C520.031006,115.496880 517.150208,115.883987 516.223328,117.186234 
	C510.934021,124.617882 506.110443,132.380997 500.558044,140.386566 
	C499.283020,142.336487 497.968140,144.261658 496.738983,146.240082 
	C477.147339,177.774017 457.873199,209.510666 437.885162,240.791183 
	C422.271790,265.225586 405.447998,288.854004 384.405975,309.076508 
	C379.467773,313.822388 373.987488,318.004181 368.756592,322.445496 
	C368.362885,322.110046 367.969208,321.774597 367.575500,321.439148 
	C368.175201,319.626953 368.634338,317.753235 369.396698,316.012268 
	C375.871765,301.226013 382.339142,286.435608 388.965637,271.717041 
	C390.393494,268.545624 390.454803,266.133484 388.344696,263.038452 
	C355.893433,215.439941 323.550049,167.767624 291.339569,120.005898 
	C288.992340,116.525421 286.526428,115.320213 282.421478,115.329178 
	C225.928619,115.452568 169.435394,115.408035 112.942268,115.421478 
	C111.399574,115.421844 109.856934,115.609184 107.494339,115.762566 
	C109.386620,118.688431 110.671402,120.800583 112.077423,122.828674 
	C121.470764,136.377945 130.907700,149.897018 140.297470,163.448761 
	C170.160126,206.547836 200.002472,249.660980 229.864120,292.760742 
	C250.822205,323.009888 271.755585,353.276398 292.832733,383.442383 
	C295.002045,386.547150 294.842010,388.470612 292.142761,391.058502 
	C283.967041,398.897156 276.021667,406.975983 267.981689,414.956329 
	C229.443405,453.208710 190.875153,491.430969 152.377747,529.724487 
	C136.444748,545.573181 120.662346,561.573242 104.207359,577.749084 
	C103.684952,578.406921 103.162552,579.064697 102.719292,579.643066 
	C102.719292,579.643066 102.618210,579.692566 102.141724,579.841431 
	C102.015526,580.130737 101.889320,580.420044 101.810684,580.808472 
M531.081604,388.589539 
	C617.167725,299.999481 703.253845,211.409409 789.339905,122.819336 
	C789.007629,122.415649 788.675354,122.011955 788.343018,121.608261 
	C786.885864,122.538696 785.369019,123.388428 783.981750,124.413429 
	C777.687866,129.063629 771.438904,133.774597 765.158508,138.443207 
	C718.781433,172.918152 672.376282,207.355347 626.027527,241.868271 
	C571.128357,282.748138 516.301392,323.724976 461.398102,364.599274 
	C400.820679,409.697815 340.189850,454.724670 279.587585,499.789886 
	C267.424713,508.834534 255.249710,517.863586 243.151978,526.994812 
	C237.586700,531.195312 231.170471,534.794800 226.884140,540.080994 
	C189.119781,586.654236 151.745911,633.544128 114.273529,680.354004 
	C113.317177,681.548706 112.555542,682.899353 111.703918,684.176025 
	C112.380714,684.605103 112.507187,684.755554 112.633766,684.755615 
	C170.126923,684.800415 227.620117,684.853149 285.113098,684.768127 
	C286.599640,684.765930 288.590271,683.620056 289.484558,682.384338 
	C294.168274,675.912048 298.686188,669.311829 303.057678,662.622742 
	C330.378967,620.816772 357.263062,578.718201 385.096069,537.256348 
	C398.558044,517.202515 414.185669,498.689270 433.037140,483.241821 
	C435.746765,481.021545 438.698120,479.096283 441.537598,477.034515 
	C441.928101,478.670227 441.695099,479.611267 441.311707,480.486389 
	C434.300201,496.490234 427.408539,512.549255 420.139191,528.435364 
	C418.505371,532.005920 418.788116,534.522583 421.033386,537.508667 
	C424.433075,542.030090 427.526733,546.783569 430.704895,551.469299 
	C459.867737,594.466125 489.064514,637.440125 518.091125,680.528748 
	C520.340393,683.867798 522.719543,684.936707 526.592468,684.928833 
	C583.087585,684.813782 639.583008,684.845764 696.078369,684.827576 
	C697.644287,684.827087 699.210205,684.659424 701.618652,684.521545 
	C637.106873,593.179443 573.070618,502.510681 508.839966,411.566620 
	C516.255981,403.913818 523.427185,396.513611 531.081604,388.589539 
z"/>
<path fill="#072E48" opacity="1.000000" stroke="none" 
	d="
M530.840027,388.851501 
	C523.427185,396.513611 516.255981,403.913818 508.839966,411.566620 
	C573.070618,502.510681 637.106873,593.179443 701.618652,684.521545 
	C699.210205,684.659424 697.644287,684.827087 696.078369,684.827576 
	C639.583008,684.845764 583.087585,684.813782 526.592468,684.928833 
	C522.719543,684.936707 520.340393,683.867798 518.091125,680.528748 
	C489.064514,637.440125 459.867737,594.466125 430.704895,551.469299 
	C427.526733,546.783569 424.433075,542.030090 421.033386,537.508667 
	C418.788116,534.522583 418.505371,532.005920 420.139191,528.435364 
	C427.408539,512.549255 434.300201,496.490234 441.311707,480.486389 
	C441.695099,479.611267 441.928101,478.670227 441.537598,477.034515 
	C438.698120,479.096283 435.746765,481.021545 433.037140,483.241821 
	C414.185669,498.689270 398.558044,517.202515 385.096069,537.256348 
	C357.263062,578.718201 330.378967,620.816772 303.057678,662.622742 
	C298.686188,669.311829 294.168274,675.912048 289.484558,682.384338 
	C288.590271,683.620056 286.599640,684.765930 285.113098,684.768127 
	C227.620117,684.853149 170.126923,684.800415 112.633766,684.755615 
	C112.507187,684.755554 112.380714,684.605103 111.703918,684.176025 
	C112.555542,682.899353 113.317177,681.548706 114.273529,680.354004 
	C151.745911,633.544128 189.119781,586.654236 226.884140,540.080994 
	C231.170471,534.794800 237.586700,531.195312 243.151978,526.994812 
	C255.249710,517.863586 267.424713,508.834534 279.587585,499.789886 
	C340.189850,454.724670 400.820679,409.697815 461.398102,364.599274 
	C516.301392,323.724976 571.128357,282.748138 626.027527,241.868271 
	C672.376282,207.355347 718.781433,172.918152 765.158508,138.443207 
	C771.438904,133.774597 777.687866,129.063629 783.981750,124.413429 
	C785.369019,123.388428 786.885864,122.538696 788.343018,121.608261 
	C788.675354,122.011955 789.007629,122.415649 789.339905,122.819336 
	C703.253845,211.409409 617.167725,299.999481 530.840027,388.851501 
z"/>
<path fill="#EC1C25" opacity="1.000000" stroke="none" 
	d="
M75.077370,622.248779 
	C75.077362,622.248779 74.901947,622.587036 74.507774,622.560303 
	C74.113602,622.533569 73.651840,622.426697 73.663063,622.465942 
	C73.674286,622.505249 73.830505,622.461487 73.448959,622.361206 
	C72.022636,623.152161 70.977859,624.043335 69.615807,624.978271 
	C68.876793,625.089172 68.455063,625.156372 67.813080,625.263000 
	C67.311127,625.467957 67.160301,625.713928 66.993080,626.300293 
	C66.250801,627.075745 65.655800,627.591125 64.733032,628.115234 
	C63.958694,628.762085 63.512119,629.400146 63.010372,630.316711 
	C62.921234,630.970825 62.887268,631.346375 62.853306,631.721985 
	C62.853306,631.721985 62.848946,631.870728 62.438164,631.847107 
	C61.355999,631.914001 60.684612,632.004517 59.811035,631.821594 
	C54.732750,629.641785 55.743362,633.693237 54.801750,636.076294 
	C54.365761,636.164551 54.194233,636.213135 53.896835,635.953186 
	C52.814034,634.745056 51.857101,633.845520 50.956684,632.655151 
	C51.072525,631.773865 51.131847,631.183411 51.191177,630.592957 
	C51.486504,630.229919 51.781834,629.866882 52.601379,629.358276 
	C53.398140,629.174622 53.669037,629.127075 54.049583,629.218323 
	C54.400711,629.221558 54.640537,629.076599 54.926620,628.596802 
	C54.963818,627.813477 54.954765,627.365051 54.945709,626.916565 
	C54.945709,626.916565 54.992687,626.990356 55.324715,627.003296 
	C57.401939,625.862000 59.398739,624.959778 60.850048,623.511047 
	C68.304222,616.070251 75.618149,608.489014 83.303009,600.928040 
	C84.064247,600.259399 84.503532,599.619446 85.072067,598.766724 
	C85.411331,598.287781 85.670288,598.083862 86.203880,597.855347 
	C86.712357,597.577515 86.886902,597.314514 87.097870,596.725586 
	C87.810860,595.947876 88.379196,595.424316 89.328789,594.921692 
	C93.101051,594.398560 96.533264,593.890442 95.050003,588.756409 
	C95.442459,588.331604 95.708427,588.126892 96.350174,587.936646 
	C97.820557,586.641235 98.915161,585.331238 100.007118,584.011597 
	C100.004478,584.001892 100.024010,584.009277 100.340378,583.967102 
	C101.118233,583.293030 101.579727,582.661133 102.005333,581.700928 
	C101.882851,581.170044 101.796242,580.967590 101.709641,580.765198 
	C101.709641,580.765198 101.810684,580.808472 102.090790,580.888794 
	C102.589546,580.991211 102.808197,581.013306 103.394623,581.023865 
	C104.647324,580.627808 105.768326,580.467957 106.380981,579.824280 
	C113.278610,572.577454 120.036163,565.196838 126.961349,557.976868 
	C131.261826,553.493347 135.759369,549.197144 140.213715,544.863403 
	C146.214462,539.024963 152.241226,533.212952 158.289658,527.423950 
	C163.781433,522.167725 169.451508,517.090759 174.803238,511.696930 
	C183.755020,502.674896 192.463272,493.411652 201.375320,484.349518 
	C207.518143,478.103210 213.851440,472.044617 220.062851,465.865204 
	C224.614944,461.336639 229.034668,456.673187 233.641403,452.201782 
	C243.527451,442.606079 253.559097,433.160034 263.412689,423.531464 
	C272.426453,414.723633 281.067963,405.523926 290.285217,396.938904 
	C296.683838,390.979126 298.641998,387.701447 295.642334,382.783630 
	C291.957947,376.743317 287.753540,371.013641 283.654480,365.234406 
	C278.194916,357.537048 272.478577,350.018585 267.137909,342.241089 
	C262.490356,335.472992 258.440979,328.289825 253.710403,321.584137 
	C248.012619,313.507416 241.589279,305.937561 235.989731,297.797638 
	C226.074417,283.384033 216.988480,268.410858 206.618759,254.293137 
	C202.611923,248.838104 199.206406,242.944870 195.295303,237.415070 
	C190.657852,230.858292 185.615036,224.586502 181.026550,217.997162 
	C173.470444,207.146103 166.208984,196.090256 158.693283,185.210541 
	C149.829041,172.378662 140.789978,159.667587 131.912979,146.844421 
	C130.008240,144.092972 128.693771,140.924332 126.723419,138.228516 
	C121.964020,131.716812 116.977791,125.370888 111.606216,118.333473 
	C113.588737,118.113930 114.230331,117.980759 114.871941,117.980652 
	C170.853180,117.971336 226.834503,117.942261 282.815277,118.101967 
	C284.701965,118.107338 287.199371,119.566048 288.359192,121.128784 
	C293.116669,127.538933 297.424530,134.280731 301.974426,140.847443 
	C310.211578,152.735855 318.631134,164.499969 326.736206,176.477264 
	C334.644318,188.163589 342.123657,200.140152 350.036102,211.823471 
	C356.571198,221.473053 363.531830,230.833344 370.175873,240.410660 
	C375.326721,247.835480 380.275543,255.400360 385.323212,262.896912 
	C387.143555,265.600342 388.040405,268.026642 386.429108,271.553040 
	C379.301544,287.152435 372.506439,302.906128 365.815582,318.699066 
	C365.148102,320.274506 366.001709,322.494354 366.149323,324.415131 
	C368.117157,324.080811 370.699890,324.432892 371.957764,323.306030 
	C384.663330,311.923920 397.685974,300.860504 407.743683,286.822479 
	C412.902557,279.621918 419.272705,273.266357 424.201294,265.928375 
	C434.483704,250.619247 444.155121,234.900284 454.110321,219.370712 
	C460.860840,208.840317 467.785400,198.419632 474.415863,187.814667 
	C481.318085,176.775024 488.046600,165.623871 494.675140,154.417404 
	C497.413177,149.788345 499.692932,144.888199 502.508850,140.028595 
	C506.179901,135.286621 509.521179,130.625900 512.867249,125.968620 
	C515.842896,121.826843 517.919678,116.623337 524.755859,117.756325 
	C528.100037,118.310562 531.598816,117.970367 535.027588,117.970856 
	C581.005066,117.977432 626.982544,117.972511 672.960022,117.970810 
	C687.940308,117.970253 702.920532,117.970718 718.528931,117.970718 
	C717.233032,119.645813 716.466309,121.170486 715.251038,122.122559 
	C706.384888,129.068115 697.422241,135.890396 688.502747,142.768021 
	C680.635742,148.834061 672.747681,154.873718 664.940308,161.015823 
	C659.604309,165.213745 654.464355,169.662048 649.103516,173.826981 
	C643.033997,178.542526 636.742676,182.972839 630.678467,187.694992 
	C620.995117,195.235306 611.476135,202.987000 601.777771,210.507599 
	C595.820374,215.127274 589.548706,219.342972 583.611816,223.987564 
	C572.591248,232.609131 561.746887,241.455353 550.765198,250.127136 
	C539.507507,259.016876 528.205994,267.851898 516.861206,276.630280 
	C509.228424,282.536438 501.507172,288.329102 493.787903,294.122437 
	C487.861267,298.570465 481.760742,302.794434 475.948242,307.384796 
	C469.764069,312.268677 463.957214,317.631836 457.752838,322.488281 
	C448.626740,329.631683 439.255798,336.461304 430.062805,343.520508 
	C423.679230,348.422394 417.482330,353.567841 411.086487,358.453278 
	C404.830261,363.232117 398.309113,367.668304 392.119324,372.528809 
	C384.472900,378.533112 377.166199,384.971191 369.497742,390.945892 
	C360.299500,398.112518 350.811707,404.906342 341.565125,412.012329 
	C331.884155,419.452087 322.330475,427.057739 312.740387,434.615326 
	C304.861847,440.824066 297.044037,447.110199 289.140503,453.286804 
	C279.122620,461.115753 269.036011,468.856720 258.996490,476.658112 
	C251.195389,482.720062 243.454758,488.860229 235.624115,494.883606 
	C229.257690,499.780640 222.791565,504.547943 216.380844,509.387604 
	C210.615524,513.740112 204.802246,518.032288 199.122360,522.493958 
	C188.755020,530.637756 178.514114,538.942749 168.136612,547.073486 
	C160.914215,552.732239 153.528946,558.182739 146.257172,563.779175 
	C134.892685,572.525391 123.547127,581.296448 112.247490,590.126038 
	C111.336189,590.838135 110.841179,592.083008 109.985832,593.322510 
	C109.226967,594.064026 108.635010,594.563416 107.677902,595.110596 
	C107.084595,595.953979 106.856445,596.749695 106.628288,597.545349 
	C106.628288,597.545349 106.544121,597.547852 106.209419,597.436340 
	C104.916672,597.884033 103.958626,598.443237 102.959503,599.257568 
	C102.908043,599.854919 102.897659,600.197144 102.887268,600.539429 
	C102.588585,600.846008 102.289909,601.152649 101.602180,601.529907 
	C101.213127,601.600647 100.982872,601.626709 100.719666,601.442444 
	C97.636154,600.871338 95.206284,600.964661 95.660164,605.087708 
	C94.998390,605.914612 94.608032,606.591614 94.217667,607.268677 
	C94.217674,607.268677 94.061501,606.994019 93.765228,607.023315 
	C92.679825,607.108093 91.890686,607.163574 90.832977,607.307739 
	C90.380508,607.913208 90.196609,608.430115 89.781845,609.006836 
	C89.550972,609.066650 89.087761,609.180603 88.759781,609.163452 
	C87.980309,609.767944 87.528809,610.389648 87.055725,611.027039 
	C87.034149,611.042786 86.989937,611.072815 86.773254,611.157715 
	C86.285408,611.425964 86.113853,611.677368 86.027069,612.004761 
	C86.012238,612.012756 85.997330,612.042969 85.767822,612.037415 
	C85.380005,612.359680 85.221695,612.687439 85.015198,613.260010 
	C84.859940,613.825989 84.824715,614.154968 84.861336,614.491699 
	C84.861336,614.491699 84.580856,614.867249 83.996918,614.914673 
	C82.555336,615.874512 81.697693,616.786865 80.840050,617.699219 
	C80.840042,617.699219 80.856224,617.846985 80.485764,617.863953 
	C79.747284,618.294617 79.379272,618.708313 79.011261,619.122009 
	C78.913147,619.266296 78.815033,619.410583 78.186676,619.682007 
	C77.172073,620.303101 76.687721,620.796997 76.203369,621.290894 
	C76.203369,621.290894 76.138199,621.174988 75.895905,621.212158 
	C75.461533,621.582520 75.269455,621.915649 75.077370,622.248779 
z"/>
<path fill="#D03A41" opacity="1.000000" stroke="none" 
	d="
M502.181152,140.111359 
	C499.692932,144.888199 497.413177,149.788345 494.675140,154.417404 
	C488.046600,165.623871 481.318085,176.775024 474.415863,187.814667 
	C467.785400,198.419632 460.860840,208.840317 454.110321,219.370712 
	C444.155121,234.900284 434.483704,250.619247 424.201294,265.928375 
	C419.272705,273.266357 412.902557,279.621918 407.743683,286.822479 
	C397.685974,300.860504 384.663330,311.923920 371.957764,323.306030 
	C370.699890,324.432892 368.117157,324.080811 366.149323,324.415131 
	C366.001709,322.494354 365.148102,320.274506 365.815582,318.699066 
	C372.506439,302.906128 379.301544,287.152435 386.429108,271.553040 
	C388.040405,268.026642 387.143555,265.600342 385.323212,262.896912 
	C380.275543,255.400360 375.326721,247.835480 370.175873,240.410660 
	C363.531830,230.833344 356.571198,221.473053 350.036102,211.823471 
	C342.123657,200.140152 334.644318,188.163589 326.736206,176.477264 
	C318.631134,164.499969 310.211578,152.735855 301.974426,140.847443 
	C297.424530,134.280731 293.116669,127.538933 288.359192,121.128784 
	C287.199371,119.566048 284.701965,118.107338 282.815277,118.101967 
	C226.834503,117.942261 170.853180,117.971336 114.871941,117.980652 
	C114.230331,117.980759 113.588737,118.113930 111.606216,118.333473 
	C116.977791,125.370888 121.964020,131.716812 126.723419,138.228516 
	C128.693771,140.924332 130.008240,144.092972 131.912979,146.844421 
	C140.789978,159.667587 149.829041,172.378662 158.693283,185.210541 
	C166.208984,196.090256 173.470444,207.146103 181.026550,217.997162 
	C185.615036,224.586502 190.657852,230.858292 195.295303,237.415070 
	C199.206406,242.944870 202.611923,248.838104 206.618759,254.293137 
	C216.988480,268.410858 226.074417,283.384033 235.989731,297.797638 
	C241.589279,305.937561 248.012619,313.507416 253.710403,321.584137 
	C258.440979,328.289825 262.490356,335.472992 267.137909,342.241089 
	C272.478577,350.018585 278.194916,357.537048 283.654480,365.234406 
	C287.753540,371.013641 291.957947,376.743317 295.642334,382.783630 
	C298.641998,387.701447 296.683838,390.979126 290.285217,396.938904 
	C281.067963,405.523926 272.426453,414.723633 263.412689,423.531464 
	C253.559097,433.160034 243.527451,442.606079 233.641403,452.201782 
	C229.034668,456.673187 224.614944,461.336639 220.062851,465.865204 
	C213.851440,472.044617 207.518143,478.103210 201.375320,484.349518 
	C192.463272,493.411652 183.755020,502.674896 174.803238,511.696930 
	C169.451508,517.090759 163.781433,522.167725 158.289658,527.423950 
	C152.241226,533.212952 146.214462,539.024963 140.213715,544.863403 
	C135.759369,549.197144 131.261826,553.493347 126.961349,557.976868 
	C120.036163,565.196838 113.278610,572.577454 106.380981,579.824280 
	C105.768326,580.467957 104.647324,580.627808 103.320686,580.679321 
	C102.792046,580.128418 102.705132,579.910522 102.618210,579.692566 
	C102.618210,579.692566 102.719292,579.643066 103.034882,579.662903 
	C103.837456,578.956604 104.324448,578.230530 104.811432,577.504456 
	C120.662346,561.573242 136.444748,545.573181 152.377747,529.724487 
	C190.875153,491.430969 229.443405,453.208710 267.981689,414.956329 
	C276.021667,406.975983 283.967041,398.897156 292.142761,391.058502 
	C294.842010,388.470612 295.002045,386.547150 292.832733,383.442383 
	C271.755585,353.276398 250.822205,323.009888 229.864120,292.760742 
	C200.002472,249.660980 170.160126,206.547836 140.297470,163.448761 
	C130.907700,149.897018 121.470764,136.377945 112.077423,122.828674 
	C110.671402,120.800583 109.386620,118.688431 107.494339,115.762566 
	C109.856934,115.609184 111.399574,115.421844 112.942268,115.421478 
	C169.435394,115.408035 225.928619,115.452568 282.421478,115.329178 
	C286.526428,115.320213 288.992340,116.525421 291.339569,120.005898 
	C323.550049,167.767624 355.893433,215.439941 388.344696,263.038452 
	C390.454803,266.133484 390.393494,268.545624 388.965637,271.717041 
	C382.339142,286.435608 375.871765,301.226013 369.396698,316.012268 
	C368.634338,317.753235 368.175201,319.626953 367.575500,321.439148 
	C367.969208,321.774597 368.362885,322.110046 368.756592,322.445496 
	C373.987488,318.004181 379.467773,313.822388 384.405975,309.076508 
	C405.447998,288.854004 422.271790,265.225586 437.885162,240.791183 
	C457.873199,209.510666 477.147339,177.774017 496.738983,146.240082 
	C497.968140,144.261658 499.283020,142.336487 501.107361,140.216583 
	C501.831512,140.068207 502.006317,140.089783 502.181152,140.111359 
z"/>
<path fill="#D33941" opacity="1.000000" stroke="none" 
	d="
M502.508850,140.028595 
	C502.006317,140.089783 501.831512,140.068207 501.392639,140.039047 
	C506.110443,132.380997 510.934021,124.617882 516.223328,117.186234 
	C517.150208,115.883987 520.031006,115.496880 522.011719,115.491074 
	C555.663879,115.392311 589.316345,115.423218 622.968750,115.420052 
	C654.954773,115.417046 686.940857,115.407700 718.926880,115.401237 
	C721.174866,115.400780 723.422791,115.401176 725.670776,115.401176 
	C725.770386,115.806206 725.869934,116.211235 725.969543,116.616264 
	C724.743469,117.654533 723.553772,118.739662 722.286072,119.724297 
	C668.660278,161.376175 615.013062,203.000427 561.399780,244.668381 
	C508.963989,285.421204 456.569305,326.227020 404.143127,366.992218 
	C342.779175,414.707184 281.397980,462.399994 220.029510,510.109161 
	C184.942932,537.386230 149.867325,564.677368 114.780777,591.954529 
	C114.258438,592.360657 113.658966,592.667542 112.392746,593.055725 
	C111.177589,593.087280 110.665176,593.083801 110.152740,593.080383 
	C110.841179,592.083008 111.336189,590.838135 112.247490,590.126038 
	C123.547127,581.296448 134.892685,572.525391 146.257172,563.779175 
	C153.528946,558.182739 160.914215,552.732239 168.136612,547.073486 
	C178.514114,538.942749 188.755020,530.637756 199.122360,522.493958 
	C204.802246,518.032288 210.615524,513.740112 216.380844,509.387604 
	C222.791565,504.547943 229.257690,499.780640 235.624115,494.883606 
	C243.454758,488.860229 251.195389,482.720062 258.996490,476.658112 
	C269.036011,468.856720 279.122620,461.115753 289.140503,453.286804 
	C297.044037,447.110199 304.861847,440.824066 312.740387,434.615326 
	C322.330475,427.057739 331.884155,419.452087 341.565125,412.012329 
	C350.811707,404.906342 360.299500,398.112518 369.497742,390.945892 
	C377.166199,384.971191 384.472900,378.533112 392.119324,372.528809 
	C398.309113,367.668304 404.830261,363.232117 411.086487,358.453278 
	C417.482330,353.567841 423.679230,348.422394 430.062805,343.520508 
	C439.255798,336.461304 448.626740,329.631683 457.752838,322.488281 
	C463.957214,317.631836 469.764069,312.268677 475.948242,307.384796 
	C481.760742,302.794434 487.861267,298.570465 493.787903,294.122437 
	C501.507172,288.329102 509.228424,282.536438 516.861206,276.630280 
	C528.205994,267.851898 539.507507,259.016876 550.765198,250.127136 
	C561.746887,241.455353 572.591248,232.609131 583.611816,223.987564 
	C589.548706,219.342972 595.820374,215.127274 601.777771,210.507599 
	C611.476135,202.987000 620.995117,195.235306 630.678467,187.694992 
	C636.742676,182.972839 643.033997,178.542526 649.103516,173.826981 
	C654.464355,169.662048 659.604309,165.213745 664.940308,161.015823 
	C672.747681,154.873718 680.635742,148.834061 688.502747,142.768021 
	C697.422241,135.890396 706.384888,129.068115 715.251038,122.122559 
	C716.466309,121.170486 717.233032,119.645813 718.528931,117.970718 
	C702.920532,117.970718 687.940308,117.970253 672.960022,117.970810 
	C626.982544,117.972511 581.005066,117.977432 535.027588,117.970856 
	C531.598816,117.970367 528.100037,118.310562 524.755859,117.756325 
	C517.919678,116.623337 515.842896,121.826843 512.867249,125.968620 
	C509.521179,130.625900 506.179901,135.286621 502.508850,140.028595 
z"/>
<path fill="#D33941" opacity="1.000000" stroke="none" 
	d="
M50.900169,632.945984 
	C51.857101,633.845520 52.814034,634.745056 53.859604,636.258667 
	C53.688889,637.672791 53.429539,638.472900 53.170189,639.273010 
	C53.170193,639.273010 53.145180,639.154297 52.839100,639.138733 
	C51.795223,639.880249 51.057423,640.637329 50.319618,641.394348 
	C50.319611,641.394348 50.097885,641.225647 49.932571,641.286072 
	C49.585663,641.663025 49.404064,641.979553 49.222462,642.296082 
	C49.222458,642.296082 49.152393,642.090149 48.863918,642.122925 
	C47.037453,643.592957 45.499466,645.030273 43.961475,646.467590 
	C43.853870,646.612366 43.746265,646.757202 43.050190,646.978027 
	C41.297916,648.151123 40.134117,649.248291 38.970314,650.345459 
	C38.851601,650.504639 38.732887,650.663818 37.977997,650.923157 
	C35.896832,652.352966 34.451839,653.682739 33.006851,655.012451 
	C33.006847,655.012451 32.999695,655.000000 32.652302,654.988647 
	C31.864876,654.033386 30.957689,653.011841 31.098482,652.164429 
	C31.291212,651.004517 32.280193,649.976868 32.927887,648.892517 
	C32.927887,648.892517 32.982723,648.981689 33.290794,648.948364 
	C35.753532,646.494568 37.908195,644.074036 40.062851,641.653503 
	C40.170822,641.495117 40.278801,641.336670 41.001987,641.051758 
	C44.053177,638.247681 46.489159,635.570129 48.925140,632.892578 
	C48.925140,632.892578 48.986568,632.983398 49.275204,632.975952 
	C50.009285,632.960999 50.454727,632.953491 50.900169,632.945984 
z"/>
<path fill="#CA4C54" opacity="1.000000" stroke="none" 
	d="
M88.947525,594.900757 
	C88.379196,595.424316 87.810860,595.947876 86.886856,596.831177 
	C86.267395,597.382812 86.083069,597.633240 85.978203,597.942139 
	C85.670288,598.083862 85.411331,598.287781 84.813622,598.889648 
	C83.944298,599.802612 83.462669,600.379700 82.981056,600.956787 
	C75.618149,608.489014 68.304222,616.070251 60.850048,623.511047 
	C59.398739,624.959778 57.401939,625.862000 55.286655,626.981750 
	C62.989391,618.699036 71.043907,610.432800 79.144478,602.211914 
	C82.161819,599.149719 85.286873,596.193726 88.734894,593.146362 
	C89.106987,593.103455 89.214050,593.208740 89.141800,593.485840 
	C89.028870,594.142273 88.988197,594.521484 88.947525,594.900757 
z"/>
<path fill="#CA4C54" opacity="1.000000" stroke="none" 
	d="
M32.609482,648.987427 
	C32.280193,649.976868 31.291212,651.004517 31.098482,652.164429 
	C30.957689,653.011841 31.864876,654.033386 32.658463,654.992310 
	C26.933680,659.839172 20.855347,664.671082 14.777012,669.502991 
	C14.390224,669.064392 14.003434,668.625732 13.616646,668.187134 
	C17.791031,663.778992 21.965418,659.370850 26.554552,655.188354 
	C27.388594,655.768494 27.805794,656.125793 28.239447,656.461853 
	C28.250067,656.470032 28.443560,656.242126 28.551750,656.124390 
	C27.969400,655.680176 27.387045,655.235962 26.804678,654.791748 
	C28.633469,652.888611 30.462271,650.985413 32.609482,648.987427 
z"/>
<path fill="#CA4C54" opacity="1.000000" stroke="none" 
	d="
M95.974388,587.922119 
	C95.708427,588.126892 95.442459,588.331604 94.763214,588.906555 
	C92.637978,590.587463 90.926018,591.898071 89.214050,593.208740 
	C89.214050,593.208740 89.106987,593.103455 89.054077,593.050293 
	C91.465851,590.411743 93.930534,587.826416 96.761330,585.184326 
	C97.127441,585.127686 97.231956,585.232422 97.131195,585.512146 
	C96.678406,586.501953 96.326393,587.212036 95.974388,587.922119 
z"/>
<path fill="#CA4C54" opacity="1.000000" stroke="none" 
	d="
M48.604782,632.989624 
	C46.489159,635.570129 44.053177,638.247681 41.266262,640.938354 
	C43.371693,638.329895 45.828056,635.708313 48.604782,632.989624 
z"/>
<path fill="#CA4C54" opacity="1.000000" stroke="none" 
	d="
M39.767876,641.715698 
	C37.908195,644.074036 35.753532,646.494568 33.246193,648.921021 
	C35.086639,646.543945 37.279766,644.160950 39.767876,641.715698 
z"/>
<path fill="#CA4C54" opacity="1.000000" stroke="none" 
	d="
M65.060806,628.106445 
	C65.655800,627.591125 66.250801,627.075745 67.176697,626.206055 
	C67.741058,625.691101 67.916306,625.481750 68.033333,625.223633 
	C68.455063,625.156372 68.876793,625.089172 69.965256,625.026794 
	C70.862785,625.074707 71.093590,625.117798 71.324394,625.160950 
	C69.467827,626.743408 67.611259,628.325806 65.360641,629.937256 
	C64.966583,629.966187 64.825546,629.824768 64.887619,629.541748 
	C64.986725,628.874695 65.023766,628.490540 65.060806,628.106445 
z"/>
<path fill="#CA4C54" opacity="1.000000" stroke="none" 
	d="
M53.511379,639.217590 
	C53.429539,638.472900 53.688889,637.672791 53.985470,636.567261 
	C54.194233,636.213135 54.365761,636.164551 55.127663,636.039185 
	C56.733856,635.562927 57.749664,635.163391 58.813080,634.811768 
	C58.860683,634.859619 58.956535,634.954712 58.956524,634.954712 
	C57.255199,636.357178 55.553886,637.759644 53.511379,639.217590 
z"/>
<path fill="#CA4C54" opacity="1.000000" stroke="none" 
	d="
M44.268528,646.425537 
	C45.499466,645.030273 47.037453,643.592957 48.926453,642.211914 
	C47.710167,643.639954 46.142872,645.011780 44.268528,646.425537 
z"/>
<path fill="#CA4C54" opacity="1.000000" stroke="none" 
	d="
M33.335602,654.936951 
	C34.451839,653.682739 35.896832,652.352966 37.703987,651.039917 
	C36.598885,652.324890 35.131618,653.593140 33.335602,654.936951 
z"/>
<path fill="#CA4C54" opacity="1.000000" stroke="none" 
	d="
M91.101562,607.219055 
	C91.890686,607.163574 92.679825,607.108093 93.853462,607.154663 
	C92.802872,608.538208 91.367783,609.819763 89.513504,611.093567 
	C89.094307,611.085815 88.905006,610.903992 88.947937,610.617493 
	C89.023163,609.947510 89.055458,609.564087 89.087761,609.180603 
	C89.087761,609.180603 89.550972,609.066650 90.026581,608.883667 
	C90.701981,608.206787 90.901779,607.712891 91.101562,607.219055 
z"/>
<path fill="#CA4C54" opacity="1.000000" stroke="none" 
	d="
M85.174835,614.527832 
	C84.824715,614.154968 84.859940,613.825989 85.222038,613.152954 
	C85.737068,612.607910 85.910484,612.355164 85.997330,612.042969 
	C85.997330,612.042969 86.012238,612.012756 86.237961,611.911865 
	C86.730103,611.629761 86.905518,611.383728 86.989937,611.072815 
	C86.989937,611.072815 87.034149,611.042786 87.360840,611.026794 
	C88.093361,610.975220 88.499184,610.939575 88.905006,610.903992 
	C88.905006,610.903992 89.094307,611.085815 89.190125,611.175781 
	C88.020073,612.365112 86.754211,613.464539 85.174835,614.527832 
z"/>
<path fill="#CA4C54" opacity="1.000000" stroke="none" 
	d="
M100.982880,601.626709 
	C100.982872,601.626709 101.213127,601.600647 101.308815,601.665833 
	C100.202965,602.815308 99.001434,603.899597 97.413086,605.003418 
	C97.026260,605.022949 96.877922,604.873962 96.980965,604.553345 
	C98.383629,603.364136 99.683258,602.495422 100.982880,601.626709 
z"/>
<path fill="#CA4C54" opacity="1.000000" stroke="none" 
	d="
M39.266773,650.371643 
	C40.134117,649.248291 41.297916,648.151123 42.791748,647.058472 
	C41.935593,648.174561 40.749413,649.286194 39.266773,650.371643 
z"/>
<path fill="#CA4C54" opacity="1.000000" stroke="none" 
	d="
M60.013233,632.094971 
	C60.684612,632.004517 61.355999,631.914001 62.366440,631.827332 
	C61.664391,632.830750 60.623291,633.830322 59.269363,634.892334 
	C58.956535,634.954712 58.860683,634.859619 58.915833,634.535706 
	C59.318401,633.506165 59.665821,632.800598 60.013233,632.094971 
z"/>
<path fill="#CA4C54" opacity="1.000000" stroke="none" 
	d="
M81.153580,617.635437 
	C81.697693,616.786865 82.555336,615.874512 83.779030,615.000977 
	C83.252419,615.883728 82.359764,616.727722 81.153580,617.635437 
z"/>
<path fill="#CA4C54" opacity="1.000000" stroke="none" 
	d="
M109.985840,593.322510 
	C110.665176,593.083801 111.177589,593.087280 112.072891,593.144653 
	C111.268929,594.244202 110.082077,595.289795 108.499969,596.068604 
	C108.084160,595.555542 108.063606,595.309204 108.043060,595.062805 
	C108.635010,594.563416 109.226967,594.064026 109.985840,593.322510 
z"/>
<path fill="#CA4C54" opacity="1.000000" stroke="none" 
	d="
M97.075073,585.075439 
	C97.819954,584.108704 98.617195,583.194153 99.725403,582.529419 
	C100.032249,583.189270 100.028130,583.599304 100.024010,584.009277 
	C100.024010,584.009277 100.004478,584.001892 99.720741,584.116821 
	C98.701988,584.565308 97.966980,584.898865 97.231964,585.232422 
	C97.231956,585.232422 97.127441,585.127686 97.075073,585.075439 
z"/>
<path fill="#D33941" opacity="1.000000" stroke="none" 
	d="
M71.544456,625.102539 
	C71.093590,625.117798 70.862785,625.074707 70.282539,624.983093 
	C70.977859,624.043335 72.022636,623.152161 73.430771,622.341675 
	C73.794128,622.422485 73.795135,622.368347 73.572220,622.754272 
	C73.235123,623.414551 73.120926,623.688843 73.006737,623.963135 
	C73.006737,623.963135 72.999466,624.015320 72.782143,624.060547 
	C72.312515,624.229431 72.141289,624.424316 72.051125,624.690430 
	C72.051125,624.690430 71.764519,625.044189 71.544456,625.102539 
z"/>
<path fill="#CA4C54" opacity="1.000000" stroke="none" 
	d="
M53.938282,629.070190 
	C53.669037,629.127075 53.398140,629.174622 52.919613,629.200806 
	C53.262974,628.456238 53.812321,627.723633 54.653687,626.953796 
	C54.954765,627.365051 54.963818,627.813477 54.690323,628.621765 
	C54.407768,628.981567 53.938282,629.070190 53.938282,629.070190 
z"/>
<path fill="#CA4C54" opacity="1.000000" stroke="none" 
	d="
M94.539696,607.251587 
	C94.608032,606.591614 94.998390,605.914612 95.898621,605.093994 
	C96.408501,604.950439 96.877922,604.873962 96.877922,604.873962 
	C96.877922,604.873962 97.026260,605.022949 97.100906,605.096924 
	C96.404274,605.858765 95.632996,606.546692 94.539696,607.251587 
z"/>
<path fill="#CA4C54" opacity="1.000000" stroke="none" 
	d="
M50.956688,632.655151 
	C50.454727,632.953491 50.009285,632.960999 49.229294,632.946045 
	C49.467136,632.172485 50.039516,631.421509 50.901535,630.631714 
	C51.131847,631.183411 51.072525,631.773865 50.956688,632.655151 
z"/>
<path fill="#CA4C54" opacity="1.000000" stroke="none" 
	d="
M50.636292,641.340576 
	C51.057423,640.637329 51.795223,639.880249 52.889927,639.171814 
	C52.482208,639.909241 51.717583,640.598083 50.636292,641.340576 
z"/>
<path fill="#CA4C54" opacity="1.000000" stroke="none" 
	d="
M63.153679,631.729187 
	C62.887268,631.346375 62.921234,630.970825 63.305832,630.300659 
	C64.046165,629.945618 64.435860,629.885193 64.825546,629.824768 
	C64.825546,629.824768 64.966583,629.966187 65.037094,630.036865 
	C64.556419,630.650513 64.005234,631.193481 63.153679,631.729187 
z"/>
<path fill="#D33941" opacity="1.000000" stroke="none" 
	d="
M107.677902,595.110596 
	C108.063606,595.309204 108.084160,595.555542 108.169220,596.167969 
	C107.864799,596.862366 107.495872,597.190674 106.877617,597.532104 
	C106.856445,596.749695 107.084595,595.953979 107.677902,595.110596 
z"/>
<path fill="#D03A41" opacity="1.000000" stroke="none" 
	d="
M100.340378,583.967102 
	C100.028130,583.599304 100.032249,583.189270 100.030174,582.472046 
	C100.023979,582.164734 100.167053,581.852112 100.717377,581.890259 
	C101.525536,581.961914 101.783379,581.995544 102.041214,582.029236 
	C101.579727,582.661133 101.118233,583.293030 100.340378,583.967102 
z"/>
<path fill="#D33941" opacity="1.000000" stroke="none" 
	d="
M103.000565,599.002441 
	C103.958626,598.443237 104.916672,597.884033 106.217247,597.394958 
	C106.559776,597.465088 106.495819,597.490417 106.331055,597.660278 
	C106.104134,597.990479 106.041985,598.150879 105.979836,598.311340 
	C105.850777,598.470459 105.721725,598.629517 104.971741,598.888062 
	C103.900726,598.992554 103.450638,598.997498 103.000565,599.002441 
z"/>
<path fill="#CA4C54" opacity="1.000000" stroke="none" 
	d="
M102.959496,599.257568 
	C103.450638,598.997498 103.900726,598.992554 104.687737,599.005371 
	C104.505264,599.547119 103.985863,600.071228 103.176865,600.567383 
	C102.897659,600.197144 102.908043,599.854919 102.959496,599.257568 
z"/>
<path fill="#CA4C54" opacity="1.000000" stroke="none" 
	d="
M104.509399,577.626770 
	C104.324448,578.230530 103.837456,578.956604 102.995308,579.702637 
	C103.162552,579.064697 103.684952,578.406921 104.509399,577.626770 
z"/>
<path fill="#CA4C54" opacity="1.000000" stroke="none" 
	d="
M76.489021,621.286011 
	C76.687721,620.796997 77.172073,620.303101 77.948975,619.791565 
	C77.752571,620.276367 77.263626,620.778748 76.489021,621.286011 
z"/>
<path fill="#CA4C54" opacity="1.000000" stroke="none" 
	d="
M73.278641,623.948853 
	C73.120926,623.688843 73.235123,623.414551 73.541183,622.781250 
	C73.733047,622.422302 73.651840,622.426697 73.651840,622.426697 
	C73.651840,622.426697 74.113602,622.533569 74.330505,622.630005 
	C74.215126,623.129150 73.882835,623.531860 73.278641,623.948853 
z"/>
<path fill="#CA4C54" opacity="1.000000" stroke="none" 
	d="
M79.306580,619.111084 
	C79.379272,618.708313 79.747284,618.294617 80.411560,617.859619 
	C80.339180,618.258972 79.970543,618.679504 79.306580,619.111084 
z"/>
<path fill="#CA4C54" opacity="1.000000" stroke="none" 
	d="
M72.260681,624.672791 
	C72.141289,624.424316 72.312515,624.229431 72.756813,624.053345 
	C72.912804,624.309387 72.753281,624.527466 72.260681,624.672791 
z"/>
<path fill="#CA4C54" opacity="1.000000" stroke="none" 
	d="
M75.365143,622.201416 
	C75.269455,621.915649 75.461533,621.582520 75.957825,621.236389 
	C76.058998,621.533630 75.855957,621.843872 75.365143,622.201416 
z"/>
<path fill="#CA4C54" opacity="1.000000" stroke="none" 
	d="
M49.487389,642.245239 
	C49.404064,641.979553 49.585663,641.663025 50.059174,641.344238 
	C50.151493,641.626099 49.951904,641.910217 49.487389,642.245239 
z"/>
<path fill="#CA4C54" opacity="1.000000" stroke="none" 
	d="
M102.005341,581.700928 
	C101.783379,581.995544 101.525536,581.961914 100.884598,581.850464 
	C100.715660,581.465027 100.929825,581.157532 101.426819,580.807617 
	C101.796242,580.967590 101.882851,581.170044 102.005341,581.700928 
z"/>
<path fill="#CA4C54" opacity="1.000000" stroke="none" 
	d="
M102.379967,579.766968 
	C102.705132,579.910522 102.792046,580.128418 102.952904,580.690918 
	C102.808197,581.013306 102.589546,580.991211 102.067001,580.839233 
	C101.889320,580.420044 102.015526,580.130737 102.379967,579.766968 
z"/>
<path fill="#CA4C54" opacity="1.000000" stroke="none" 
	d="
M106.164833,598.367310 
	C106.041985,598.150879 106.104134,597.990479 106.349976,597.642456 
	C106.570328,597.690613 106.637619,597.927490 106.628227,598.161377 
	C106.624580,598.252197 106.447762,598.336121 106.164833,598.367310 
z"/>
<path fill="#D03A41" opacity="1.000000" stroke="none" 
	d="
M89.141800,593.485840 
	C90.926018,591.898071 92.637978,590.587463 94.636726,589.126648 
	C96.533264,593.890442 93.101051,594.398560 89.328781,594.921692 
	C88.988197,594.521484 89.028870,594.142273 89.141800,593.485840 
z"/>
<path fill="#D33941" opacity="1.000000" stroke="none" 
	d="
M59.811043,631.821594 
	C59.665821,632.800598 59.318401,633.506165 58.868225,634.487854 
	C57.749664,635.163391 56.733856,635.562927 55.392128,635.999512 
	C55.743362,633.693237 54.732750,629.641785 59.811043,631.821594 
z"/>
<path fill="#D33941" opacity="1.000000" stroke="none" 
	d="
M96.980965,604.553345 
	C96.877922,604.873962 96.408501,604.950439 96.170044,604.944153 
	C95.206284,600.964661 97.636154,600.871338 100.719673,601.442444 
	C99.683258,602.495422 98.383629,603.364136 96.980965,604.553345 
z"/>
<path fill="#D03A41" opacity="1.000000" stroke="none" 
	d="
M97.131195,585.512146 
	C97.966980,584.898865 98.701988,584.565308 99.723381,584.126526 
	C98.915161,585.331238 97.820557,586.641235 96.350166,587.936646 
	C96.326393,587.212036 96.678406,586.501953 97.131195,585.512146 
z"/>
<path fill="#D33941" opacity="1.000000" stroke="none" 
	d="
M64.887619,629.541748 
	C64.435860,629.885193 64.046165,629.945618 63.361008,630.022095 
	C63.512119,629.400146 63.958694,628.762085 64.733032,628.115234 
	C65.023766,628.490540 64.986725,628.874695 64.887619,629.541748 
z"/>
<path fill="#D33941" opacity="1.000000" stroke="none" 
	d="
M88.947937,610.617493 
	C88.499184,610.939575 88.093361,610.975220 87.382423,611.011047 
	C87.528809,610.389648 87.980309,609.767944 88.759781,609.163452 
	C89.055458,609.564087 89.023163,609.947510 88.947937,610.617493 
z"/>
<path fill="#D03A41" opacity="1.000000" stroke="none" 
	d="
M83.303001,600.928040 
	C83.462669,600.379700 83.944298,599.802612 84.684372,599.102539 
	C84.503532,599.619446 84.064247,600.259399 83.303001,600.928040 
z"/>
<path fill="#D33941" opacity="1.000000" stroke="none" 
	d="
M85.767822,612.037415 
	C85.910484,612.355164 85.737068,612.607910 85.270226,612.908203 
	C85.221695,612.687439 85.380005,612.359680 85.767822,612.037415 
z"/>
<path fill="#D33941" opacity="1.000000" stroke="none" 
	d="
M90.832993,607.307739 
	C90.901779,607.712891 90.701981,608.206787 90.257454,608.823792 
	C90.196609,608.430115 90.380508,607.913208 90.832993,607.307739 
z"/>
<path fill="#D33941" opacity="1.000000" stroke="none" 
	d="
M54.049583,629.218323 
	C53.938282,629.070190 54.407768,628.981567 54.644066,628.956665 
	C54.640537,629.076599 54.400711,629.221558 54.049583,629.218323 
z"/>
<path fill="#D03A41" opacity="1.000000" stroke="none" 
	d="
M86.203880,597.855347 
	C86.083069,597.633240 86.267395,597.382812 86.742195,597.085266 
	C86.886902,597.314514 86.712357,597.577515 86.203880,597.855347 
z"/>
<path fill="#D33941" opacity="1.000000" stroke="none" 
	d="
M67.813080,625.263000 
	C67.916306,625.481750 67.741058,625.691101 67.323975,625.945923 
	C67.160301,625.713928 67.311127,625.467957 67.813080,625.263000 
z"/>
<path fill="#FEFEFE" opacity="1.000000" stroke="none" 
	d="
M73.663063,622.465942 
	C73.651840,622.426697 73.733047,622.422302 73.764091,622.395325 
	C73.795135,622.368347 73.794128,622.422485 73.812317,622.442017 
	C73.830505,622.461487 73.674286,622.505249 73.663063,622.465942 
z"/>
<path fill="#D33941" opacity="1.000000" stroke="none" 
	d="
M86.773254,611.157715 
	C86.905518,611.383728 86.730103,611.629761 86.252792,611.903809 
	C86.113853,611.677368 86.285408,611.425964 86.773254,611.157715 
z"/>
<path fill="#D33941" opacity="1.000000" stroke="none" 
	d="
M26.900854,654.894531 
	C27.387045,655.235962 27.969400,655.680176 28.551750,656.124390 
	C28.443560,656.242126 28.250067,656.470032 28.239447,656.461853 
	C27.805794,656.125793 27.388594,655.768494 26.880404,655.109497 
	C26.791506,654.804993 26.997021,654.997253 26.900854,654.894531 
z"/>
</svg>